<?xml version="1.0" encoding="utf-8"?>
<!-- Svg Vector Icons : http://www.onlinewebfonts.com/icon -->
<!DOCTYPE svg PUBLIC "-//W3C//DTD SVG 1.1//EN" "http://www.w3.org/Graphics/SVG/1.1/DTD/svg11.dtd">
<svg version="1.1" xmlns="http://www.w3.org/2000/svg" xmlns:xlink="http://www.w3.org/1999/xlink" x="0px" y="0px" viewBox="0 0 1000 1000" enable-background="new 0 0 1000 1000" xml:space="preserve">
<metadata> Svg Vector Icons : http://www.onlinewebfonts.com/icon </metadata>
<g><g transform="translate(0.000000,511.000000) scale(0.100000,-0.100000)"><path d="M234,4052.3c-143.4-112.3-133.9,98-133.9-3324.7c0-2939.9,2.4-3143.1,43-3222c86-176.9-33.5-167.3,2246.8-167.3h2036.4v-215.1v-212.7l-941.7-7.2c-1130.6-9.6-1032.6,21.5-1166.4-356.1c-93.2-265.3-107.6-353.8-62.1-399.2c40.6-40.6,5447.2-40.6,5487.8,0c45.4,45.4,31.1,133.8-62.1,399.2c-133.9,377.6-35.9,346.6-1166.4,356.1l-941.7,7.2v212.7v215.1h2038.8c2277.8,0,2158.3-9.6,2244.4,167.3c40.6,78.9,43,282,43,3222c0,3422.7,9.6,3212.4-133.8,3324.7l-64.5,50.2H5000H298.5L234,4052.3z M9297.5,966.6l-7.2-2540.8H5000H709.6l-7.2,2540.8l-4.8,2538.4H5000h4302.3L9297.5,966.6z M5368.1-1982.9c40.6-38.3,50.2-145.8,19.1-193.6c-33.5-55-153-78.9-387.2-78.9c-325.1,0-406.3,33.5-406.3,172.1c0,124.3,43,138.6,406.3,138.6C5270.1-1944.7,5339.4-1951.8,5368.1-1982.9z"/><path d="M1971.6,3074.7c-105.2-43-124.3-164.9-40.6-251c55-52.6,1350.4-52.6,1405.4,0c86,88.4,64.5,210.3-47.8,251C3212.1,3103.4,2043.3,3103.4,1971.6,3074.7z"/><path d="M4593.7,3067.5c-76.5-38.2-95.6-167.3-33.5-234.2c40.6-43,100.4-45.4,1814.2-45.4c1732.9,0,1773.5,0,1816.5,47.8c52.6,57.4,55,160.1,2.4,210.3c-35.8,38.2-196,40.6-1790.2,45.4C5028.7,3096.2,4641.5,3091.4,4593.7,3067.5z"/><path d="M1880.8,1724.3l-59.8-57.4v-870v-870l55-50.2c55-52.6,64.5-52.6,970.4-52.6h913.1l57.4,59.8l59.8,57.4v838.9c0,903.5-7.2,956.1-124.3,989.5c-31.1,7.2-451.7,14.3-934.6,14.3h-879.6L1880.8,1724.3z"/><path d="M4574.6,1721.9c-35.9-23.9-52.6-59.8-52.6-117.1c0-162.5-90.8-155.4,1854.8-155.4c1651.6,0,1752,2.4,1802.2,43c33.5,26.3,55,69.3,55,112.3s-21.5,86-55,112.3c-50.2,40.6-150.6,43-1802.2,43C4832.7,1760.1,4622.4,1755.3,4574.6,1721.9z"/><path d="M4562.6,1143.5c-50.2-55-52.6-179.3-4.8-219.9c55-45.4,3587.7-43,3633.1,2.4c55,57.4,55,167.3-2.4,222.3c-33.5,33.5-229.5,38.2-1811.8,38.2C4686.9,1186.5,4598.5,1184.1,4562.6,1143.5z"/><path d="M4565,586.5c-28.7-14.3-43-52.6-43-105.2c0-164.9-117.1-155.4,1847.6-155.4c975.2,0,1785.5,9.6,1799.8,19.1c62.2,40.6,83.7,121.9,52.6,191.2l-31.1,64.5l-1792.6,4.8C5210.3,610.4,4591.3,603.3,4565,586.5z"/><path d="M4677.3-175.9c-198.4-81.3-246.2-363.3-83.7-506.7l71.7-66.9H5392h726.6l74.1,62.1c40.6,33.5,86.1,100.4,100.4,150.6c23.9,76.5,19.1,107.6-21.5,198.4c-78.9,181.7-107.6,186.4-882,184.1C5023.9-154.4,4703.6-164,4677.3-175.9z"/></g></g>
</svg>